<?xml version="1.0" encoding="utf-8"?>
<svg version="1.1" xmlns:cc="http://creativecommons.org/ns#" xmlns:dc="http://purl.org/dc/elements/1.1/" xmlns:rdf="http://www.w3.org/1999/02/22-rdf-syntax-ns#" xmlns="http://www.w3.org/2000/svg" xmlns:xlink="http://www.w3.org/1999/xlink" x="0px" y="0px" viewBox="0 0 1024 768" xml:space="preserve">
<path fill="#eb614b" d="m236.65 354.64c-6.0263-0.0819-11.418 3.1822-14.164 8.5215l-24.74 47.68c-0.56952 1.139 0.24316 2.5215 1.5449 2.5215h9.1133c0.65088 0 1.2195-0.32501 1.5449-0.89453l22.699-44.016c1.0577-2.034 3.0119-2.2773 3.7441-2.2773 0.73224 0 2.6845 0.24336 3.7422 2.2773l22.699 44.016c0.32544 0.56952 0.89403 0.89453 1.5449 0.89453h9.1133c1.3018 0 2.1144-1.3824 1.5449-2.5215l-24.488-47.27c-2.5222-4.8816-7.2423-8.381-12.693-8.8691-0.4068-0.0356-0.81114-0.0551-1.2129-0.0605zm249.17 0c-6.0263-0.0819-11.418 3.1822-14.164 8.5215l-24.734 47.678c-0.56952 1.139 0.24511 2.5215 1.5469 2.5215h9.1113c0.65087 0 1.2214-0.32501 1.5469-0.89453l22.699-44.016c1.0577-2.034 3.01-2.2773 3.7422-2.2773 0.73224 0 2.6845 0.24336 3.7422 2.2773l22.699 44.016c0.32544 0.56952 0.89598 0.89453 1.5469 0.89453h9.1113c1.3018 0 2.1164-1.3824 1.5469-2.5215l-24.49-47.27c-2.5222-4.8816-7.2403-8.381-12.691-8.8691-0.4068-0.0356-0.81115-0.0551-1.2129-0.0605zm-198.16 1.7695c-0.89496 0-1.709 0.73266-1.709 1.709v8.0547c0 0.97632 0.81402 1.707 1.709 1.707h49.385c3.0917 0 5.6152 2.5236 5.6152 5.6152 0 3.0917-2.5236 5.6133-5.6152 5.6133h-49.385c-0.89496 0-1.709 0.81402-1.709 1.709v30.834c0 0.89496 0.81402 1.709 1.709 1.709h8.0547c0.97631 0 1.709-0.81402 1.709-1.709v-20.99h29.127c2.7662 0 5.3688 1.4654 6.752 3.9062l10.088 17.898c0.32543 0.56952 0.89599 0.89453 1.5469 0.89453h9.2754c1.3018 0 2.1157-1.4645 1.4648-2.6035l-12.123-21.396c6.2647-2.5222 10.658-8.7056 10.658-15.865 0-9.4377-7.7302-17.086-17.168-17.086zm82.684 0c-0.89496 0-1.709 0.73266-1.709 1.709v8.0547c0 0.97632 0.81403 1.707 1.709 1.707h49.387c3.0917 0 5.6133 2.5236 5.6133 5.6152 0 3.0917-2.5216 5.6133-5.6133 5.6133h-49.387c-0.89496 0-1.709 0.81402-1.709 1.709v30.834c0 0.89496 0.81403 1.709 1.709 1.709h8.0547c0.97632 0 1.709-0.81402 1.709-1.709v-20.99h29.127c2.7662 0 5.3688 1.4654 6.752 3.9062l10.09 17.898c0.32545 0.56952 0.89405 0.89453 1.5449 0.89453h9.2754c1.3018 0 2.1157-1.4645 1.4648-2.6035l-12.123-21.396c6.2647-2.5222 10.658-8.7056 10.658-15.865 0-9.4377-7.7283-17.086-17.166-17.086zm153.42 0c-1.3018 0-2.1157 1.4645-1.4648 2.6035l12.367 21.885c3.4171 6.0206 9.8442 9.7637 16.76 9.7637h0.1621v20.99c0 0.89496 0.73268 1.709 1.709 1.709h8.0547c0.97632 0 1.709-0.81402 1.709-1.709v-20.99h0.32617c6.9156 0 13.343-3.743 16.76-9.7637l12.365-21.885c0.65088-1.139-0.16182-2.6035-1.5449-2.6035h-9.1934c-0.65089 0-1.2214 0.32501-1.5469 0.89453l-10.088 17.898c-1.3831 2.4408-3.9857 3.9062-6.752 3.9062h-11.961c-2.8476 0-5.3688-1.4654-6.752-3.9062l-10.17-17.898c-0.24408-0.56952-0.81397-0.89453-1.4648-0.89453zm77.053 0c-0.89496 0-1.709 0.73266-1.709 1.709v8.0547c0 0.97632 0.81403 1.707 1.709 1.707h27.012v43.771c0 0.89496 0.73267 1.709 1.709 1.709h8.0527c0.97633 0 1.709-0.81402 1.709-1.709v-43.771h27.012c0.89495 0 1.709-0.73071 1.709-1.707v-8.0547c0-0.97632-0.81403-1.709-1.709-1.709zm79.109 0c-0.89496 0-1.709 0.73266-1.709 1.709v8.0547c0 0.97632 0.81402 1.707 1.709 1.707h64.926c0.97632 0 1.7891-0.73071 1.7891-1.707v-8.0547c0-0.97632-0.81274-1.709-1.7891-1.709zm77.541 0c-1.3018 0-2.1138 1.4645-1.4629 2.6035l12.041 21.316c0.97632 1.7086 2.1963 3.2529 3.498 4.5547-1.3018 1.3018-2.5217 2.8481-3.498 4.5566l-12.041 21.316c-0.65088 1.139 0.16113 2.6035 1.4629 2.6035h9.2754c0.65088 0 1.2208-0.32501 1.4648-0.89453l9.8438-17.41c1.6272-2.6849 4.4754-4.3945 7.6484-4.3945h10.82c3.0917 0 6.0206 1.7097 7.5664 4.3945l9.8457 17.41c0.32544 0.56952 0.89404 0.89453 1.5449 0.89453h9.1934c1.3831 0 2.1978-1.4645 1.5469-2.6035l-12.123-21.316c-0.89496-1.7086-2.1149-3.2549-3.498-4.5566 1.3831-1.3018 2.6031-2.8461 3.498-4.5547l12.123-21.316c0.65088-1.139-0.16376-2.6035-1.5469-2.6035h-9.1934c-0.65088 0-1.2195 0.32501-1.5449 0.89453l-9.8457 17.41c-1.5458 2.6849-4.4747 4.3945-7.5664 4.3945h-10.82c-3.173 0-6.0212-1.7097-7.6484-4.3945l-9.8438-17.41c-0.24408-0.56952-0.81396-0.89453-1.4648-0.89453zm-77.541 22.699c-0.89496 0-1.709 0.81274-1.709 1.7891v30.754c0 0.89496 0.81402 1.709 1.709 1.709h64.926c0.97632 0 1.7891-0.81402 1.7891-1.709v-8.0547c0-0.97632-0.81274-1.707-1.7891-1.707h-55.162v-11.229h43.689c0.97631 0 1.709-0.81274 1.709-1.7891v-7.9746c0-0.97632-0.73267-1.7891-1.709-1.7891z" />
</svg>